name analog
datacolumns 19
datarows 28
range 0.433 0.4465
endheader
time	ground_force_vx	ground_force_vy	ground_force_vz	ground_force_px	ground_force_py	ground_force_pz	l_ground_force_vx	l_ground_force_vy	l_ground_force_vz	l_ground_force_px	l_ground_force_py	l_ground_force_pz	ground_torque_x	ground_torque_y	ground_torque_z	l_ground_torque_x	l_ground_torque_y	l_ground_torque_z
0.433	-0.0	-0.0	-0.0	-16.07149314880371	28.254337310791016	-386.07952880859375	16.178991317749023	-24.926803588867188	-390.4573974609375	-0.0	-0.0	-0.0	-0.0	-0.0	-0.0	106430.265625	10355.1240234375	-2712.671630859375
0.4335	-0.0	-0.0	-0.0	-15.948201179504396	28.960559844970703	-386.1896667480469	16.5069580078125	-25.25328063964844	-391.31927490234375	-0.0	-0.0	-0.0	-0.0	-0.0	-0.0	106519.9921875	10575.1611328125	-2589.30712890625
0.434	-0.0	-0.0	-0.0	-15.632429122924805	29.049654006958008	-385.53662109375	16.834686279296875	-25.538482666015625	-392.2861022949219	-0.0	-0.0	-0.0	-0.0	-0.0	-0.0	106465.4375	10391.8046875	-2666.54736328125
0.4345	-0.0	-0.0	-0.0	-15.454121589660645	29.25545692443848	-386.2149353027344	16.234073638916016	-25.552148818969727	-391.37213134765625	-0.0	-0.0	-0.0	-0.0	-0.0	-0.0	106465.578125	10479.1572265625	-2792.49365234375
0.435	-0.0	-0.0	-0.0	-15.440357208251951	29.954748153686523	-384.259765625	15.879230499267578	-25.89192008972168	-390.9417724609375	-0.0	-0.0	-0.0	-0.0	-0.0	-0.0	106707.296875	10387.7548828125	-2957.097412109375
0.4355	-0.0	-0.0	-0.0	-16.06485939025879	29.954774856567383	-381.5722351074219	15.790519714355469	-26.401323318481445	-391.0498046875	-0.0	-0.0	-0.0	-0.0	-0.0	-0.0	106623.8671875	10610.9912109375	-3237.782958984375
0.436	-0.0	-0.0	-0.0	-16.318519592285156	30.222204208374023	-380.7834167480469	15.176472663879396	-26.61796760559082	-393.1719970703125	-0.0	-0.0	-0.0	-0.0	-0.0	-0.0	106576.40625	10416.5908203125	-3229.34765625
0.4365	-0.0	-0.0	-0.0	-16.675323486328125	30.05805206298828	-382.1128234863281	15.066902160644531	-26.91037368774414	-392.7955932617188	-0.0	-0.0	-0.0	-0.0	-0.0	-0.0	106988.359375	10419.546875	-3357.472900390625
0.437	-0.0	-0.0	-0.0	-16.435943603515625	30.15433120727539	-384.2037963867188	14.746970176696776	-27.223966598510746	-395.6163330078125	-0.0	-0.0	-0.0	-0.0	-0.0	-0.0	107348.1640625	10335.2470703125	-3588.114013671875
0.4375	-0.0	-0.0	-0.0	-16.800006866455078	30.578828811645508	-385.7724304199219	14.910442352294922	-27.623687744140625	-396.5808715820313	-0.0	-0.0	-0.0	-0.0	-0.0	-0.0	107756.59375	10416.5107421875	-3620.127197265625
0.438	-0.0	-0.0	-0.0	-17.10698127746582	30.64657974243164	-384.0900268554688	14.133288383483888	-27.7861442565918	-395.8113708496094	-0.0	-0.0	-0.0	-0.0	-0.0	-0.0	108216.5703125	10534.0009765625	-3791.6396484375
0.4385	-0.0	-0.0	-0.0	-17.531429290771484	31.10651016235352	-384.767333984375	13.948882102966309	-27.71887969970703	-398.326171875	-0.0	-0.0	-0.0	-0.0	-0.0	-0.0	108042.9140625	10587.2509765625	-3969.728759765625
0.439	-0.0	-0.0	-0.0	-18.572885513305664	30.935453414916992	-383.5248718261719	13.484039306640623	-28.07209205627441	-398.46624755859375	-0.0	-0.0	-0.0	-0.0	-0.0	-0.0	108371.4140625	10663.8935546875	-4266.77685546875
0.4395	-0.0	-0.0	-0.0	-18.184446334838867	30.757230758666992	-383.6108093261719	13.373814582824709	-28.66884994506836	-401.732421875	-0.0	-0.0	-0.0	-0.0	-0.0	-0.0	108549.359375	10463.4853515625	-4524.37890625
0.44	-0.0	-0.0	-0.0	-18.637720108032227	30.48259735107422	-383.9930419921875	12.7671537399292	-28.365596771240234	-401.0902404785156	-0.0	-0.0	-0.0	-0.0	-0.0	-0.0	108790.828125	10711.287109375	-4643.34228515625
0.4405	-0.0	-0.0	-0.0	-18.972579956054688	30.23712921142578	-383.9934997558594	12.10808563232422	-28.63063621520996	-403.8829956054688	-0.0	-0.0	-0.0	-0.0	-0.0	-0.0	109098.40625	10796.716796875	-4851.46435546875
0.441	-0.0	-0.0	-0.0	-18.800376892089844	30.795045852661133	-386.08392333984375	12.167925834655762	-28.962270736694336	-403.0068359375	-0.0	-0.0	-0.0	-0.0	-0.0	-0.0	109319.6796875	10887.626953125	-4942.86767578125
0.4415	-0.0	-0.0	-0.0	-19.00183868408203	30.118701934814453	-385.0538024902344	12.08657455444336	-29.300987243652344	-406.6754150390625	-0.0	-0.0	-0.0	-0.0	-0.0	-0.0	109644.0078125	10617.1044921875	-4972.63720703125
0.442	-0.0	-0.0	-0.0	-18.503665924072266	29.992477416992188	-385.996337890625	12.32345962524414	-28.903112411499023	-406.0055847167969	-0.0	-0.0	-0.0	-0.0	-0.0	-0.0	109924.2890625	10799.8095703125	-5016.7080078125
0.4425	-0.0	-0.0	-0.0	-18.682018280029297	29.769554138183597	-384.0246887207031	11.99070930480957	-29.131467819213867	-407.1398010253906	-0.0	-0.0	-0.0	-0.0	-0.0	-0.0	110218.09375	10980.57421875	-5019.494140625
0.443	-0.0	-0.0	-0.0	-18.09474754333496	29.932842254638672	-383.8472900390625	11.73948097229004	-29.264005661010746	-408.4198303222656	-0.0	-0.0	-0.0	-0.0	-0.0	-0.0	110495.828125	10773.0908203125	-5328.69384765625
0.4435	-0.0	-0.0	-0.0	-18.681581497192383	29.63535690307617	-385.2895812988281	11.621112823486328	-29.3302059173584	-408.59521484375	-0.0	-0.0	-0.0	-0.0	-0.0	-0.0	110417.3671875	10664.9287109375	-5314.02294921875
0.444	-0.0	-0.0	-0.0	-18.303266525268555	29.66532516479492	-385.9060363769531	11.798534393310549	-29.14615631103516	-409.2056884765625	-0.0	-0.0	-0.0	-0.0	-0.0	-0.0	111100.6171875	10539.0859375	-5229.88330078125
0.4445	-0.0	-0.0	-0.0	-17.880069732666016	29.397859573364254	-383.7337646484375	12.049638748168944	-28.984474182128903	-409.0339965820313	-0.0	-0.0	-0.0	-0.0	-0.0	-0.0	111091.5859375	10606.2216796875	-5311.16796875
0.445	-0.0	-0.0	-0.0	-17.678924560546875	29.441246032714844	-381.8780517578125	11.998580932617188	-28.903717041015625	-410.7140197753906	-0.0	-0.0	-0.0	-0.0	-0.0	-0.0	111016.7109375	10671.9072265625	-5301.10546875
0.4455	-0.0	-0.0	-0.0	-17.714595794677734	28.975032806396484	-383.3714599609375	12.381614685058594	-28.96196746826172	-409.2653503417969	-0.0	-0.0	-0.0	-0.0	-0.0	-0.0	110975.4375	10343.759765625	-5140.56689453125
0.446	-0.0	-0.0	-0.0	-16.965391159057617	28.633928298950195	-381.4952697753906	12.138144493103027	-28.866024017333984	-409.8140563964844	-0.0	-0.0	-0.0	-0.0	-0.0	-0.0	110821.6015625	10426.8759765625	-5032.2978515625
0.4465	-0.0	-0.0	-0.0	-16.934547424316406	28.448034286499023	-378.731201171875	11.902533531188965	-28.527904510498047	-408.88665771484375	-0.0	-0.0	-0.0	-0.0	-0.0	-0.0	110879.671875	9988.3193359375	-5189.98779296875
